<svg width="56" height="56" viewBox="0 0 56 56" fill="none" xmlns="http://www.w3.org/2000/svg">
<g filter="url(#filter0_d_4_80)">
<rect x="5.5" y="2" width="45" height="45" rx="12" fill="#4FD1C5"/>
</g>
<path d="M24.4843 32.9374C25.2609 32.9374 25.8905 32.3078 25.8905 31.5311C25.8905 30.7545 25.2609 30.1249 24.4843 30.1249C23.7076 30.1249 23.078 30.7545 23.078 31.5311C23.078 32.3078 23.7076 32.9374 24.4843 32.9374Z" fill="white"/>
<path d="M34.3281 32.9374C35.1047 32.9374 35.7343 32.3078 35.7343 31.5311C35.7343 30.7545 35.1047 30.1249 34.3281 30.1249C33.5514 30.1249 32.9218 30.7545 32.9218 31.5311C32.9218 32.3078 33.5514 32.9374 34.3281 32.9374Z" fill="white"/>
<path d="M36.8241 18.558C36.7253 18.4371 36.6009 18.3398 36.4598 18.2731C36.3187 18.2063 36.1646 18.1718 36.0085 18.1721H22.6337L22.3644 16.6437C22.3356 16.4809 22.2505 16.3334 22.1238 16.2272C21.9971 16.1209 21.8371 16.0627 21.6718 16.0627H18.8593C18.6728 16.0627 18.494 16.1368 18.3621 16.2687C18.2302 16.4005 18.1562 16.5794 18.1562 16.7659C18.1562 16.9523 18.2302 17.1312 18.3621 17.2631C18.494 17.3949 18.6728 17.469 18.8593 17.469H21.082L23.0886 28.8412C23.1173 29.004 23.2025 29.1514 23.3291 29.2577C23.4558 29.3639 23.6158 29.4221 23.7812 29.4221H35.0312C35.2176 29.4221 35.3965 29.348 35.5283 29.2162C35.6602 29.0843 35.7343 28.9055 35.7343 28.719C35.7343 28.5325 35.6602 28.3537 35.5283 28.2218C35.3965 28.0899 35.2176 28.0159 35.0312 28.0159H24.3709L24.1231 26.6096H34.7429C34.9867 26.6093 35.223 26.5248 35.4116 26.3703C35.6003 26.2158 35.7298 26.0009 35.7782 25.7619L37.0438 19.4338C37.0743 19.2806 37.0705 19.1226 37.0325 18.9712C36.9945 18.8197 36.9233 18.6786 36.8241 18.558Z" fill="white"/>
<defs>
<filter id="filter0_d_4_80" x="-4.76837e-07" y="-2.38419e-07" width="56" height="56" filterUnits="userSpaceOnUse" color-interpolation-filters="sRGB">
<feFlood flood-opacity="0" result="BackgroundImageFix"/>
<feColorMatrix in="SourceAlpha" type="matrix" values="0 0 0 0 0 0 0 0 0 0 0 0 0 0 0 0 0 0 127 0" result="hardAlpha"/>
<feOffset dy="3.5"/>
<feGaussianBlur stdDeviation="2.75"/>
<feColorMatrix type="matrix" values="0 0 0 0 0 0 0 0 0 0 0 0 0 0 0 0 0 0 0.02 0"/>
<feBlend mode="normal" in2="BackgroundImageFix" result="effect1_dropShadow_4_80"/>
<feBlend mode="normal" in="SourceGraphic" in2="effect1_dropShadow_4_80" result="shape"/>
</filter>
</defs>
</svg>
