<svg width="14" height="14" viewBox="0 0 14 14" fill="none" xmlns="http://www.w3.org/2000/svg">
<path d="M13.0558 0.177932C13.0504 0.152021 13.0378 0.128172 13.0194 0.109181C13.0009 0.0901898 12.9775 0.0768431 12.9518 0.0707056C11.2358 -0.348825 7.27109 1.14619 5.12304 3.29336C4.73992 3.67339 4.39065 4.08608 4.0792 4.52676C3.41679 4.46816 2.75439 4.51709 2.18984 4.76318C0.59697 5.46426 0.133201 7.29355 0.0040014 8.08047C-0.00332701 8.12354 -0.000562733 8.16772 0.0120767 8.20954C0.0247162 8.25137 0.0468862 8.28969 0.0768431 8.32149C0.1068 8.35329 0.143727 8.37771 0.184719 8.39282C0.225712 8.40794 0.269652 8.41334 0.313083 8.40859L2.87099 8.12646C2.87282 8.31931 2.88446 8.51194 2.90586 8.70361C2.91873 8.83671 2.97781 8.9611 3.07285 9.05517L4.06338 10.0434C4.15754 10.1383 4.28188 10.1973 4.41494 10.2103C4.60553 10.2317 4.79709 10.2433 4.98886 10.2452L4.7082 12.7999C4.70352 12.8433 4.70896 12.8872 4.72409 12.9282C4.73923 12.9692 4.76365 13.0061 4.79544 13.036C4.82722 13.0659 4.86552 13.0881 4.90731 13.1008C4.9491 13.1134 4.99326 13.1162 5.03632 13.109C5.82177 12.983 7.65429 12.5192 8.35126 10.9264C8.59736 10.3618 8.64775 9.70263 8.59091 9.04346C9.03266 8.73198 9.44643 8.38261 9.82753 7.99932C11.9823 5.85537 13.4688 1.9791 13.0558 0.177932ZM7.67773 5.4417C7.48097 5.24507 7.34695 4.9945 7.29261 4.72169C7.23828 4.44888 7.26607 4.16608 7.37248 3.90907C7.47889 3.65206 7.65913 3.43238 7.89041 3.27782C8.12168 3.12325 8.3936 3.04076 8.67177 3.04076C8.94994 3.04076 9.22186 3.12325 9.45314 3.27782C9.68442 3.43238 9.86466 3.65206 9.97107 3.90907C10.0775 4.16608 10.1053 4.44888 10.0509 4.72169C9.9966 4.9945 9.86257 5.24507 9.66581 5.4417C9.53534 5.57236 9.38039 5.67601 9.20982 5.74674C9.03926 5.81746 8.85642 5.85386 8.67177 5.85386C8.48712 5.85386 8.30429 5.81746 8.13372 5.74674C7.96315 5.67601 7.8082 5.57236 7.67773 5.4417Z" fill="#4FD1C5"/>
</svg>
