<svg width="15" height="15" viewBox="0 0 15 15" fill="none" xmlns="http://www.w3.org/2000/svg">
<path d="M13.3794 12.3458L10.6229 9.58929C11.2865 8.7058 11.6448 7.63041 11.6436 6.52542C11.6436 3.70297 9.34727 1.40668 6.52481 1.40668C3.70236 1.40668 1.40607 3.70297 1.40607 6.52542C1.40607 9.34788 3.70236 11.6442 6.52481 11.6442C7.6298 11.6454 8.70519 11.2871 9.58868 10.6235L12.3452 13.38C12.4848 13.5047 12.6668 13.5713 12.8538 13.5661C13.0409 13.5609 13.2189 13.4842 13.3512 13.3519C13.4836 13.2195 13.5602 13.0415 13.5655 12.8544C13.5707 12.6674 13.5041 12.4854 13.3794 12.3458ZM2.86857 6.52542C2.86857 5.80229 3.083 5.09539 3.48476 4.49412C3.88651 3.89286 4.45754 3.42422 5.12563 3.14749C5.79372 2.87076 6.52887 2.79835 7.23811 2.93943C7.94736 3.08051 8.59884 3.42873 9.11017 3.94007C9.62151 4.4514 9.96973 5.10288 10.1108 5.81213C10.2519 6.52137 10.1795 7.25652 9.90275 7.92461C9.62601 8.5927 9.15738 9.16373 8.55612 9.56548C7.95485 9.96724 7.24795 10.1817 6.52481 10.1817C5.55547 10.1805 4.62617 9.79493 3.94074 9.1095C3.25531 8.42407 2.86973 7.49477 2.86857 6.52542Z" fill="#2D3748"/>
</svg>
