<svg width="15" height="15" viewBox="0 0 15 15" fill="none" xmlns="http://www.w3.org/2000/svg">
<g clip-path="url(#clip0_2_106)">
<path d="M13.7566 3.53142C13.7228 3.46577 13.674 3.40902 13.6142 3.3658C13.5544 3.32257 13.4852 3.29409 13.4122 3.28267C13.3393 3.27124 13.2647 3.27721 13.1945 3.30007C13.1243 3.32293 13.0605 3.36205 13.0083 3.41423L11.2083 5.2154C11.12 5.30248 11.0009 5.3513 10.8768 5.3513C10.7528 5.3513 10.6337 5.30248 10.5453 5.2154L9.76721 4.43611C9.72367 4.39258 9.68913 4.3409 9.66557 4.28402C9.642 4.22714 9.62988 4.16618 9.62988 4.10461C9.62988 4.04305 9.642 3.98208 9.66557 3.9252C9.68913 3.86833 9.72367 3.81665 9.76721 3.77312L11.5596 1.98044C11.6133 1.92672 11.6532 1.86074 11.6758 1.78818C11.6983 1.71563 11.7029 1.63868 11.6891 1.56395C11.6754 1.48923 11.6436 1.41898 11.5967 1.35924C11.5497 1.29951 11.4889 1.25209 11.4196 1.22107V1.22107C10.0657 0.615794 8.3759 0.931614 7.31037 1.98923C6.4051 2.88806 6.13528 4.29255 6.57063 5.84265C6.5941 5.92531 6.59424 6.01286 6.57102 6.09559C6.5478 6.17832 6.50214 6.25302 6.43909 6.3114L1.56174 10.766C1.37174 10.9366 1.21848 11.1441 1.11131 11.3759C1.00414 11.6077 0.945322 11.8588 0.938429 12.1141C0.931537 12.3694 0.976719 12.6234 1.07122 12.8606C1.16572 13.0978 1.30756 13.3133 1.48808 13.4939C1.66861 13.6745 1.88403 13.8164 2.12122 13.9111C2.3584 14.0057 2.61237 14.051 2.86764 14.0442C3.1229 14.0374 3.37411 13.9787 3.60594 13.8716C3.83777 13.7646 4.04536 13.6114 4.21604 13.4215L8.71838 8.53327C8.77592 8.47103 8.84935 8.42567 8.93077 8.40208C9.01218 8.37849 9.09849 8.37756 9.18039 8.39939C9.6217 8.5203 10.0769 8.58304 10.5345 8.58601C11.513 8.58601 12.3717 8.26931 12.991 7.65905C14.138 6.52907 14.3129 4.61247 13.7566 3.53142ZM2.91497 13.1007C2.72202 13.1217 2.52729 13.0824 2.35765 12.988C2.18801 12.8937 2.05184 12.7491 1.96791 12.5741C1.88398 12.399 1.85645 12.2023 1.8891 12.011C1.92175 11.8196 2.01299 11.6432 2.15021 11.5059C2.28743 11.3686 2.46388 11.2773 2.65519 11.2446C2.84651 11.2119 3.04327 11.2394 3.21831 11.3232C3.39335 11.4071 3.53805 11.5432 3.63243 11.7128C3.72682 11.8824 3.76623 12.0771 3.74524 12.2701C3.72214 12.4824 3.62725 12.6805 3.47627 12.8315C3.32529 12.9825 3.12726 13.0775 2.91497 13.1007V13.1007Z" fill="#4FD1C5"/>
</g>
<defs>
<clipPath id="clip0_2_106">
<rect width="15" height="15" fill="white"/>
</clipPath>
</defs>
</svg>
