<svg width="22" height="22" viewBox="0 0 22 22" fill="none" xmlns="http://www.w3.org/2000/svg">
<path d="M20.8795 0H1.1219C0.502293 0 0 0.502293 0 1.1219V10.5297C0 11.1493 0.502293 11.6516 1.1219 11.6516H5.17558V20.8795C5.17522 21.1769 5.29311 21.4623 5.50329 21.6727C5.71347 21.8831 5.99869 22.0014 6.29611 22.0014H15.7039C16.3235 22.0014 16.8258 21.4991 16.8258 20.8795V11.6557H20.8795C21.1769 11.6557 21.4621 11.5375 21.6723 11.327C21.8825 11.1166 22.0004 10.8312 22 10.5338V1.1219C22.0004 0.824482 21.8825 0.539118 21.6723 0.328681C21.4621 0.118244 21.1769 0 20.8795 0ZM1.30042 1.30179H10.3498V10.3512H1.30042V1.30179ZM15.5254 20.701H6.476V11.6557H15.5254V20.701ZM20.6996 10.3512H11.6502V1.30179H20.6996V10.3512Z" fill="#2D3748"/>
</svg>
