<svg width="15" height="15" viewBox="0 0 15 15" fill="none" xmlns="http://www.w3.org/2000/svg">
<path d="M7.5 1.40605C4.13994 1.40605 1.40625 4.13974 1.40625 7.4998C1.40625 10.8599 4.13994 13.5935 7.5 13.5935C10.8601 13.5935 13.5937 10.8599 13.5937 7.4998C13.5937 4.13974 10.8601 1.40605 7.5 1.40605ZM10.6714 5.45751L6.73389 10.145C6.69069 10.1965 6.63695 10.238 6.57629 10.2669C6.51564 10.2957 6.44949 10.3112 6.38232 10.3123H6.37441C6.30871 10.3123 6.24375 10.2984 6.18374 10.2717C6.12373 10.2449 6.07001 10.2059 6.02607 10.157L4.33857 8.28202C4.29572 8.23657 4.26238 8.183 4.24052 8.12448C4.21866 8.06596 4.20872 8.00366 4.21128 7.94124C4.21384 7.87882 4.22886 7.81754 4.25544 7.761C4.28202 7.70447 4.31964 7.65382 4.36608 7.61203C4.41251 7.57024 4.46684 7.53815 4.52585 7.51766C4.58487 7.49716 4.64738 7.48867 4.70973 7.49268C4.77207 7.49669 4.83298 7.51312 4.88889 7.54101C4.94479 7.56889 4.99455 7.60768 5.03525 7.65507L6.36211 9.12929L9.95361 4.85458C10.0342 4.76144 10.1482 4.70374 10.2709 4.69396C10.3937 4.68418 10.5153 4.7231 10.6096 4.80231C10.7039 4.88151 10.7633 4.99465 10.7748 5.11725C10.7864 5.23986 10.7492 5.36208 10.6714 5.45751Z" fill="#68D391"/>
</svg>
