<svg width="36" height="36" viewBox="0 0 36 36" fill="none" xmlns="http://www.w3.org/2000/svg">
<g filter="url(#filter0_d_10_185)">
<rect x="5.5" y="2" width="25" height="25" rx="6" fill="#4FD1C5"/>
</g>
<path d="M23.2146 11.1928C23.1864 11.1381 23.1458 11.0909 23.0959 11.0548C23.0461 11.0188 22.9884 10.9951 22.9276 10.9856C22.8669 10.976 22.8047 10.981 22.7462 11.0001C22.6877 11.0191 22.6345 11.0517 22.591 11.0952L21.091 12.5962C21.0174 12.6687 20.9182 12.7094 20.8148 12.7094C20.7114 12.7094 20.6122 12.6687 20.5386 12.5962L19.8901 11.9468C19.8538 11.9105 19.825 11.8674 19.8054 11.82C19.7858 11.7726 19.7757 11.7218 19.7757 11.6705C19.7757 11.6192 19.7858 11.5684 19.8054 11.521C19.825 11.4736 19.8538 11.4305 19.8901 11.3943L21.3838 9.90037C21.4285 9.8556 21.4618 9.80061 21.4806 9.74015C21.4994 9.67969 21.5032 9.61556 21.4917 9.55329C21.4802 9.49102 21.4538 9.43248 21.4147 9.3827C21.3755 9.33293 21.3249 9.29341 21.2671 9.26756C20.1389 8.76316 18.7307 9.02635 17.8428 9.90769C17.0884 10.6567 16.8635 11.8271 17.2263 13.1189C17.2459 13.1878 17.246 13.2607 17.2266 13.3297C17.2073 13.3986 17.1692 13.4608 17.1167 13.5095L13.0522 17.2217C12.8939 17.3638 12.7662 17.5368 12.6769 17.7299C12.5876 17.9231 12.5385 18.1324 12.5328 18.3451C12.5271 18.5578 12.5647 18.7695 12.6435 18.9672C12.7222 19.1648 12.8404 19.3444 12.9908 19.4949C13.1413 19.6454 13.3208 19.7637 13.5185 19.8425C13.7161 19.9214 13.9278 19.9591 14.1405 19.9535C14.3532 19.9478 14.5625 19.8989 14.7557 19.8097C14.9489 19.7205 15.1219 19.5928 15.2641 19.4345L19.0161 15.3611C19.064 15.3092 19.1252 15.2714 19.1931 15.2517C19.2609 15.2321 19.3328 15.2313 19.4011 15.2495C19.7689 15.3503 20.1482 15.4025 20.5295 15.405C21.3449 15.405 22.0605 15.1411 22.5766 14.6325C23.5324 13.6909 23.6782 12.0937 23.2146 11.1928ZM14.1799 19.1672C14.0191 19.1848 13.8568 19.152 13.7155 19.0734C13.5741 18.9948 13.4606 18.8742 13.3907 18.7284C13.3208 18.5825 13.2978 18.4186 13.325 18.2591C13.3522 18.0997 13.4283 17.9526 13.5426 17.8382C13.657 17.7239 13.804 17.6478 13.9634 17.6205C14.1229 17.5932 14.2868 17.6161 14.4327 17.686C14.5786 17.7559 14.6991 17.8693 14.7778 18.0107C14.8565 18.152 14.8893 18.3143 14.8718 18.4751C14.8526 18.652 14.7735 18.817 14.6477 18.9429C14.5218 19.0688 14.3568 19.1479 14.1799 19.1672Z" fill="white"/>
<defs>
<filter id="filter0_d_10_185" x="-4.76837e-07" y="-2.38419e-07" width="36" height="36" filterUnits="userSpaceOnUse" color-interpolation-filters="sRGB">
<feFlood flood-opacity="0" result="BackgroundImageFix"/>
<feColorMatrix in="SourceAlpha" type="matrix" values="0 0 0 0 0 0 0 0 0 0 0 0 0 0 0 0 0 0 127 0" result="hardAlpha"/>
<feOffset dy="3.5"/>
<feGaussianBlur stdDeviation="2.75"/>
<feColorMatrix type="matrix" values="0 0 0 0 0 0 0 0 0 0 0 0 0 0 0 0 0 0 0.02 0"/>
<feBlend mode="normal" in2="BackgroundImageFix" result="effect1_dropShadow_10_185"/>
<feBlend mode="normal" in="SourceGraphic" in2="effect1_dropShadow_10_185" result="shape"/>
</filter>
</defs>
</svg>
