<svg width="36" height="36" viewBox="0 0 36 36" fill="none" xmlns="http://www.w3.org/2000/svg">
<g filter="url(#filter0_d_10_170)">
<rect x="5.5" y="2" width="25" height="25" rx="6" fill="#4FD1C5"/>
</g>
<path d="M16.0477 19.1875C16.4792 19.1875 16.829 18.8377 16.829 18.4062C16.829 17.9747 16.4792 17.625 16.0477 17.625C15.6163 17.625 15.2665 17.9747 15.2665 18.4062C15.2665 18.8377 15.6163 19.1875 16.0477 19.1875Z" fill="white"/>
<path d="M21.5165 19.1875C21.948 19.1875 22.2977 18.8377 22.2977 18.4062C22.2977 17.9747 21.948 17.625 21.5165 17.625C21.085 17.625 20.7352 17.9747 20.7352 18.4062C20.7352 18.8377 21.085 19.1875 21.5165 19.1875Z" fill="white"/>
<path d="M22.9032 11.1989C22.8483 11.1317 22.7792 11.0777 22.7008 11.0406C22.6224 11.0035 22.5368 10.9844 22.4501 10.9845H15.0197L14.87 10.1354C14.854 10.0449 14.8067 9.96301 14.7364 9.90399C14.666 9.84496 14.5771 9.81262 14.4852 9.81264H12.9227C12.8191 9.81264 12.7198 9.85379 12.6465 9.92705C12.5733 10.0003 12.5321 10.0997 12.5321 10.2033C12.5321 10.3069 12.5733 10.4062 12.6465 10.4795C12.7198 10.5527 12.8191 10.5939 12.9227 10.5939H14.1576L15.2723 16.9118C15.2883 17.0022 15.3356 17.0841 15.406 17.1432C15.4763 17.2022 15.5653 17.2345 15.6571 17.2345H21.9071C22.0107 17.2345 22.1101 17.1934 22.1833 17.1201C22.2566 17.0468 22.2977 16.9475 22.2977 16.8439C22.2977 16.7403 22.2566 16.6409 22.1833 16.5677C22.1101 16.4944 22.0107 16.4533 21.9071 16.4533H15.9847L15.847 15.672H21.7469C21.8824 15.6718 22.0137 15.6249 22.1185 15.539C22.2233 15.4532 22.2952 15.3338 22.3221 15.2011L23.0253 11.6854C23.0422 11.6004 23.04 11.5126 23.0189 11.4284C22.9978 11.3443 22.9583 11.2659 22.9032 11.1989Z" fill="white"/>
<defs>
<filter id="filter0_d_10_170" x="-4.76837e-07" y="-2.38419e-07" width="36" height="36" filterUnits="userSpaceOnUse" color-interpolation-filters="sRGB">
<feFlood flood-opacity="0" result="BackgroundImageFix"/>
<feColorMatrix in="SourceAlpha" type="matrix" values="0 0 0 0 0 0 0 0 0 0 0 0 0 0 0 0 0 0 127 0" result="hardAlpha"/>
<feOffset dy="3.5"/>
<feGaussianBlur stdDeviation="2.75"/>
<feColorMatrix type="matrix" values="0 0 0 0 0 0 0 0 0 0 0 0 0 0 0 0 0 0 0.02 0"/>
<feBlend mode="normal" in2="BackgroundImageFix" result="effect1_dropShadow_10_170"/>
<feBlend mode="normal" in="SourceGraphic" in2="effect1_dropShadow_10_170" result="shape"/>
</filter>
</defs>
</svg>
