<svg width="36" height="36" viewBox="0 0 36 36" fill="none" xmlns="http://www.w3.org/2000/svg">
<g filter="url(#filter0_d_10_136)">
<rect x="5.5" y="2" width="25" height="25" rx="6" fill="#4FD1C5"/>
</g>
<path d="M14.0823 10.7879H21.8948C21.986 10.7878 22.0772 10.7936 22.1677 10.8052C22.137 10.5898 22.0631 10.3829 21.9502 10.1969C21.8374 10.0108 21.6881 9.8496 21.5113 9.72284C21.3344 9.59609 21.1338 9.50646 20.9214 9.45936C20.709 9.41226 20.4892 9.40866 20.2754 9.44877L13.8503 10.5457H13.843C13.4397 10.6228 13.0811 10.851 12.8403 11.1836C13.203 10.9257 13.6372 10.7873 14.0823 10.7879Z" fill="white"/>
<path d="M21.8948 11.3749H14.0823C13.668 11.3754 13.2708 11.5401 12.9779 11.8331C12.685 12.126 12.5202 12.5231 12.5198 12.9374V17.6249C12.5202 18.0392 12.685 18.4363 12.9779 18.7293C13.2708 19.0222 13.668 19.187 14.0823 19.1874H21.8948C22.309 19.187 22.7062 19.0222 22.9991 18.7293C23.2921 18.4363 23.4568 18.0392 23.4573 17.6249V12.9374C23.4568 12.5231 23.2921 12.126 22.9991 11.8331C22.7062 11.5401 22.309 11.3754 21.8948 11.3749ZM20.7351 16.0624C20.5806 16.0624 20.4295 16.0166 20.3011 15.9307C20.1726 15.8449 20.0725 15.7229 20.0133 15.5801C19.9542 15.4374 19.9387 15.2803 19.9689 15.1287C19.999 14.9772 20.0734 14.838 20.1827 14.7287C20.2919 14.6195 20.4311 14.5451 20.5827 14.5149C20.7342 14.4848 20.8913 14.5002 21.0341 14.5594C21.1768 14.6185 21.2988 14.7186 21.3847 14.8471C21.4705 14.9756 21.5164 15.1266 21.5164 15.2812C21.5164 15.4884 21.434 15.6871 21.2875 15.8336C21.141 15.9801 20.9423 16.0624 20.7351 16.0624Z" fill="white"/>
<path d="M12.532 14.5841V12.1549C12.532 11.6259 12.825 10.7389 13.8418 10.5468C14.7048 10.3849 15.5593 10.3849 15.5593 10.3849C15.5593 10.3849 16.1208 10.7755 15.657 10.7755C15.1931 10.7755 15.2053 11.3737 15.657 11.3737C16.1086 11.3737 15.657 11.9474 15.657 11.9474L13.8381 14.0104L12.532 14.5841Z" fill="white"/>
<defs>
<filter id="filter0_d_10_136" x="-4.76837e-07" y="-2.38419e-07" width="36" height="36" filterUnits="userSpaceOnUse" color-interpolation-filters="sRGB">
<feFlood flood-opacity="0" result="BackgroundImageFix"/>
<feColorMatrix in="SourceAlpha" type="matrix" values="0 0 0 0 0 0 0 0 0 0 0 0 0 0 0 0 0 0 127 0" result="hardAlpha"/>
<feOffset dy="3.5"/>
<feGaussianBlur stdDeviation="2.75"/>
<feColorMatrix type="matrix" values="0 0 0 0 0 0 0 0 0 0 0 0 0 0 0 0 0 0 0.02 0"/>
<feBlend mode="normal" in2="BackgroundImageFix" result="effect1_dropShadow_10_136"/>
<feBlend mode="normal" in="SourceGraphic" in2="effect1_dropShadow_10_136" result="shape"/>
</filter>
</defs>
</svg>
